<?xml version="1.0" encoding="UTF-8" standalone="no"?>
<svg
   width="120"
   height="120"
   version="1.1"
   id="svg1"
   sodipodi:docname="die-5.svg"
   inkscape:version="1.3.2 (091e20ef0f, 2023-11-25, custom)"
   xmlns:inkscape="http://www.inkscape.org/namespaces/inkscape"
   xmlns:sodipodi="http://sodipodi.sourceforge.net/DTD/sodipodi-0.dtd"
   xmlns="http://www.w3.org/2000/svg"
   xmlns:svg="http://www.w3.org/2000/svg">
  <defs
     id="defs1" />
  <sodipodi:namedview
     id="namedview1"
     pagecolor="#ffffff"
     bordercolor="#000000"
     borderopacity="0.25"
     inkscape:showpageshadow="2"
     inkscape:pageopacity="0.0"
     inkscape:pagecheckerboard="0"
     inkscape:deskcolor="#d1d1d1"
     inkscape:zoom="10.083333"
     inkscape:cx="59.950415"
     inkscape:cy="60.000002"
     inkscape:window-width="2560"
     inkscape:window-height="1387"
     inkscape:window-x="0"
     inkscape:window-y="27"
     inkscape:window-maximized="1"
     inkscape:current-layer="svg_3" />
  <g
     id="g1">
    <title
       id="title1">Layer 1</title>
    <rect
       rx="15"
       id="svg_1"
       height="120"
       width="120"
       y="0.26539"
       x="0.53575"
       stroke="#000"
       fill="#ffffff" />
    <rect
       id="svg_15"
       height="0"
       width="0.61457"
       y="335.52292"
       x="409.08471"
       stroke="#000"
       fill="#fff" />
    <rect
       id="svg_16"
       height="0"
       width="0.61457"
       y="335.52292"
       x="408.47013"
       stroke="#000"
       fill="#fff" />
    <g
       id="svg_3"
       stroke-width="0"
       transform="translate(-1.7083213,-3.56429)">
      <path
         id="svg_2"
         d="m 29.93553,38.43893 c -6.35359,0 -11.5,-5.14641 -11.5,-11.5 0,-6.35359 5.14641,-11.5 11.5,-11.5 6.35359,0 11.5,5.14641 11.5,11.5 0,6.35359 -5.14641,11.5 -11.5,11.5 z"
         opacity="undefined"
         stroke="#000000"
         fill="#510606" />
      <path
         id="svg_6"
         d="m 61.708321,75.06429 c -6.35359,0 -11.5,-5.14641 -11.5,-11.5 0,-6.35359 5.14641,-11.5 11.5,-11.5 6.35359,0 11.5,5.14641 11.5,11.5 0,3.1768 -1.2866,6.0518 -3.3674,8.1326 -2.0808,2.0808 -4.9558,3.3674 -8.1326,3.3674 z"
         opacity="undefined"
         stroke="#000000"
         fill="#510606" />
      <path
         id="svg_9"
         d="m 29.38421,111.68965 c -6.35359,0 -11.5,-5.14641 -11.5,-11.5 0,-6.35359 5.14641,-11.5 11.5,-11.5 6.35359,0 11.5,5.14641 11.5,11.5 0,3.1768 -1.2866,6.0518 -3.3674,8.1326 -2.0808,2.0808 -4.9558,3.3674 -8.1326,3.3674 z"
         opacity="undefined"
         stroke="#000000"
         fill="#510606" />
      <circle
         id="svg_10"
         cy="27.15975"
         cx="94.032433"
         stroke="#000000"
         fill="#510606"
         r="11.5" />
      <path
         id="svg_12"
         d="m 93.95585,111.64708 c -6.35359,0 -11.5,-5.14641 -11.5,-11.5 0,-6.35359 5.14641,-11.5 11.5,-11.5 6.35359,0 11.5,5.14641 11.5,11.5 0,3.1768 -1.2866,6.0518 -3.3674,8.1326 -2.0808,2.0808 -4.9558,3.3674 -8.1326,3.3674 z"
         opacity="undefined"
         stroke="#000000"
         fill="#510606" />
    </g>
  </g>
</svg>
