<?xml version="1.0" encoding="UTF-8" standalone="no"?>
<svg
   width="120"
   height="120"
   version="1.1"
   id="svg1"
   sodipodi:docname="die-4.svg"
   inkscape:version="1.3.2 (091e20ef0f, 2023-11-25, custom)"
   xmlns:inkscape="http://www.inkscape.org/namespaces/inkscape"
   xmlns:sodipodi="http://sodipodi.sourceforge.net/DTD/sodipodi-0.dtd"
   xmlns="http://www.w3.org/2000/svg"
   xmlns:svg="http://www.w3.org/2000/svg">
  <defs
     id="defs1" />
  <sodipodi:namedview
     id="namedview1"
     pagecolor="#ffffff"
     bordercolor="#000000"
     borderopacity="0.25"
     inkscape:showpageshadow="2"
     inkscape:pageopacity="0.0"
     inkscape:pagecheckerboard="0"
     inkscape:deskcolor="#d1d1d1"
     inkscape:zoom="10.083333"
     inkscape:cx="60.049587"
     inkscape:cy="60"
     inkscape:window-width="2560"
     inkscape:window-height="1387"
     inkscape:window-x="0"
     inkscape:window-y="27"
     inkscape:window-maximized="1"
     inkscape:current-layer="g1" />
  <g
     id="g1">
    <title
       id="title1">Layer 1</title>
    <rect
       rx="15"
       id="svg_1"
       height="120"
       width="120"
       y="-0.31432"
       x="0.08647"
       stroke="#000"
       fill="#ffffff" />
    <rect
       id="svg_15"
       height="0"
       width="0.61457"
       y="335.52292"
       x="409.08471"
       stroke="#000"
       fill="#fff" />
    <rect
       id="svg_16"
       height="0"
       width="0.61457"
       y="335.52292"
       x="408.47013"
       stroke="#000"
       fill="#fff" />
    <g
       id="svg_3"
       stroke-width="0"
       transform="translate(-0.25904139,-3.14231)">
      <path
         id="svg_2"
         d="m 28.48625,38.01695 c -6.35359,0 -11.5,-5.14641 -11.5,-11.5 0,-6.35359 5.14641,-11.5 11.5,-11.5 6.35359,0 11.5,5.14641 11.5,11.5 0,6.35359 -5.14641,11.5 -11.5,11.5 z"
         opacity="undefined"
         stroke="#000000"
         fill="#510606" />
      <path
         id="svg_9"
         d="m 27.93493,111.26767 c -6.35359,0 -11.5,-5.14641 -11.5,-11.5 0,-6.35359 5.14641,-11.5 11.5,-11.5 6.35359,0 11.5,5.14641 11.5,11.5 0,3.1768 -1.2866,6.0518 -3.3674,8.1326 -2.0808,2.0808 -4.9558,3.3674 -8.1326,3.3674 z"
         opacity="undefined"
         stroke="#000000"
         fill="#510606" />
      <circle
         id="svg_10"
         cy="26.73777"
         cx="92.583153"
         stroke="#000000"
         fill="#510606"
         r="11.5" />
      <path
         id="svg_12"
         d="m 92.50657,111.2251 c -6.35359,0 -11.5,-5.14641 -11.5,-11.5 0,-6.35359 5.14641,-11.5 11.5,-11.5 6.35359,0 11.5,5.14641 11.5,11.5 0,3.1768 -1.2866,6.0518 -3.3674,8.1326 -2.0808,2.0808 -4.9558,3.3674 -8.1326,3.3674 z"
         opacity="undefined"
         stroke="#000000"
         fill="#510606" />
    </g>
  </g>
</svg>
